<svg id="Capa_1" enable-background="new 0 0 512 512" height="512" viewBox="0 0 512 512" width="512" xmlns="http://www.w3.org/2000/svg"><g><g><path d="m392.274 71.629h-32.064v-24.048c0-8.854 7.178-16.032 16.032-16.032 8.854 0 16.032 7.178 16.032 16.032z" fill="#9b959d"/><path d="m151.79 71.629h-32.065v-24.048c0-8.854 7.178-16.032 16.032-16.032 8.854 0 16.032 7.178 16.032 16.032v24.048z" fill="#9b959d"/><path d="m280.048 480.452h-24.048l-24.048-152.307h48.096z" fill="#dad8db"/><path d="m231.952 328.145v152.306h24.048v-64.129c0-8.854 7.178-16.032 16.032-16.032h8.016v-72.145z" fill="#c8c5c9"/><path d="m480.452 103.694h-448.904c-4.427 0-8.016 3.589-8.016 8.016v224.451h464.936v-224.451c0-4.428-3.589-8.016-8.016-8.016z" fill="#ff8086"/><path d="m272.032 71.629h-32.065v-24.048c0-8.854 7.178-16.032 16.032-16.032 8.854 0 16.032 7.178 16.032 16.032v24.048z" fill="#9b959d"/><path d="m95.677 320.129c-26.563 0-48.097-21.534-48.097-48.097v-168.338h-15.89c-4.506 0-8.158 3.652-8.158 8.158v224.168c0 4.506 3.652 8.158 8.158 8.158h448.62c4.506 0 8.158-3.652 8.158-8.158v-15.89h-392.791z" fill="#e5646e"/></g><g><path d="m504.5 368.742h-56.629v-17.065h32.581c8.556 0 15.516-6.96 15.516-15.516v-224.452c0-8.556-6.96-15.516-15.516-15.516h-96.709v-17.064h8.532c4.142 0 7.5-3.358 7.5-7.5v-24.048c0-12.976-10.557-23.532-23.533-23.532s-23.532 10.557-23.532 23.532v24.048c0 4.142 3.358 7.5 7.5 7.5h8.533v17.064h-105.243v-17.064h8.532c4.142 0 7.5-3.358 7.5-7.5v-24.048c0-12.976-10.557-23.532-23.532-23.532s-23.532 10.557-23.532 23.532v24.048c0 4.142 3.358 7.5 7.5 7.5h8.532v17.064h-105.242v-17.064h8.532c4.142 0 7.5-3.358 7.5-7.5v-24.048c0-12.976-10.557-23.532-23.532-23.532-12.976 0-23.533 10.557-23.533 23.532v24.048c0 4.142 3.358 7.5 7.5 7.5h8.533v17.064h-96.71c-8.556 0-15.516 6.96-15.516 15.516v224.452c0 8.556 6.96 15.516 15.516 15.516h32.581v17.065h-56.629c-4.142 0-7.5 3.358-7.5 7.5s3.358 7.5 7.5 7.5h216.952v96.709c0 4.142 3.358 7.5 7.5 7.5s7.5-3.358 7.5-7.5v-96.709h33.097v96.709c0 4.142 3.358 7.5 7.5 7.5s7.5-3.358 7.5-7.5v-96.709h216.951c4.142 0 7.5-3.358 7.5-7.5s-3.358-7.5-7.5-7.5zm-136.791-321.161c0-4.705 3.828-8.532 8.533-8.532s8.532 3.828 8.532 8.532v16.548h-17.065zm-120.241 0c0-4.705 3.828-8.532 8.532-8.532s8.532 3.828 8.532 8.532v16.548h-17.064zm-120.242 0c0-4.705 3.828-8.532 8.533-8.532s8.532 3.828 8.532 8.532v16.548h-17.065zm-48.097 321.161v-17.065h8.529c4.142 0 7.5-3.358 7.5-7.5s-3.358-7.5-7.5-7.5h-56.11c-.285 0-.516-.231-.516-.516v-224.452c0-.285.231-.516.516-.516h448.903c.285 0 .516.231.516.516v224.452c0 .285-.231.516-.516.516h-360.723c-4.142 0-7.5 3.358-7.5 7.5s3.358 7.5 7.5 7.5h104.724v17.065zm160.323 0v-17.065h33.097v17.065zm48.096-17.065h145.323v17.065h-145.323z"/><path d="m124.787 286.942c.963.413 1.965.608 2.951.608 2.91 0 5.678-1.704 6.897-4.547l8.358-19.503h81.722l8.358 19.503c1.632 3.807 6.042 5.569 9.848 3.939 3.807-1.632 5.571-6.041 3.939-9.848l-44.939-104.858c-3.103-7.236-10.194-11.913-18.067-11.913-7.874 0-14.966 4.676-18.067 11.913l-44.939 104.858c-1.632 3.807.132 8.216 3.939 9.848zm54.788-108.797c.735-1.714 2.415-2.822 4.28-2.822s3.545 1.108 4.28 2.822l30.152 70.355h-68.865z"/><path d="m280.048 287.548h40.081c35.076 0 63.613-28.537 63.613-63.613s-28.537-63.613-63.613-63.613h-40.081c-4.142 0-7.5 3.358-7.5 7.5s3.358 7.5 7.5 7.5h40.081c26.805 0 48.613 21.808 48.613 48.613s-21.808 48.613-48.613 48.613h-32.581v-72.66c0-4.142-3.358-7.5-7.5-7.5s-7.5 3.358-7.5 7.5v80.16c0 4.142 3.358 7.5 7.5 7.5z"/></g></g></svg>