<svg id="Layer_1" enable-background="new 0 0 512 512" height="512" viewBox="0 0 512 512" width="512" xmlns="http://www.w3.org/2000/svg"><path d="m512 16v480c0 8.837-7.163 16-16 16h-480c-8.837 0-16-7.163-16-16v-480c0-8.837 7.163-16 16-16h480c8.837 0 16 7.163 16 16z" fill="#f2f2f2"/><path d="m512 16v457.6h-422.4c-28.277 0-51.2-22.923-51.2-51.2v-422.4h457.6c8.837 0 16 7.163 16 16z" fill="#f9f9f9"/><path d="m426.67 195.2v224c0 8.84-7.17 16-16 16h-309.34c-8.83 0-16-7.16-16-16v-224c0-8.805 7.137-16 16-16h309.34c8.874 0 16 7.206 16 16z" fill="#fe929f"/><path d="m136.533 179.2h238.933" fill="#a2d0ff"/><path d="m426.67 195.2v27.04l-170.67 153.61-170.67-153.61v-27.04c0-8.805 7.137-16 16-16h309.34c8.874 0 16 7.206 16 16z" fill="#ea8692"/><path d="m375.467 225.28v209.92h-238.934v-209.92" fill="#f2f2f2"/><path d="m421.73 183.64-144.323 129.893c-12.17 10.953-30.644 10.953-42.814 0l-144.323-129.893c2.87-2.75 6.77-4.44 11.06-4.44h309.34c4.29 0 8.19 1.69 11.06 4.44z" fill="#fe929f"/><path d="m350.816 179.2-84.113 75.7c-6.085 5.476-15.322 5.476-21.407 0l-84.113-75.7" fill="#f2f2f2"/><path d="m512 16v86.4h-512v-86.4c0-8.837 7.163-16 16-16h480c8.837 0 16 7.163 16 16z" fill="#6994ff"/><path d="m512 16v52.267h-409.6c-37.598 0-68.267-30.46-68.267-68.267h461.867c8.837 0 16 7.163 16 16z" fill="#80aaff"/><path d="m68.267 67.2h-8.533c-8.837 0-16-7.164-16-16s7.163-16 16-16h8.533c8.837 0 16 7.164 16 16s-7.163 16-16 16z" fill="#fe929f"/><path d="m136.533 67.2h-8.533c-8.837 0-16-7.164-16-16s7.163-16 16-16h8.533c8.837 0 16 7.164 16 16s-7.163 16-16 16z" fill="#ffe773"/><path d="m204.8 67.2h-8.533c-8.837 0-16-7.164-16-16s7.163-16 16-16h8.533c8.837 0 16 7.164 16 16s-7.163 16-16 16z" fill="#99d856"/></svg>