<svg id="Layer_1" height="512" viewBox="0 0 150 150" width="512" xmlns="http://www.w3.org/2000/svg" data-name="Layer 1"><circle cx="75" cy="75" fill="#fe7058" r="64"/><g fill="#ebf0f3"><path d="m103.83 39.3a6.31 6.31 0 1 0 6.31 6.3 6.3 6.3 0 0 0 -6.31-6.3z"/><path d="m46.17 39.3a6.31 6.31 0 1 0 6.3 6.3 6.31 6.31 0 0 0 -6.3-6.3z"/><circle cx="103.83" cy="104.77" r="6.3"/><circle cx="46.17" cy="104.77" r="6.3"/><circle cx="74.11" cy="75.19" r="22.36"/></g><path d="m103.83 96.05a8.31 8.31 0 0 0 -4.93 1.63l-6.69-6.68a24 24 0 0 0 0-31.7l6.84-6.85a8.24 8.24 0 0 0 4.78 1.55 8.36 8.36 0 1 0 -7-3.73l-6.83 6.82a24 24 0 0 0 -31.7 0l-5.94-5.93a8.36 8.36 0 1 0 -2.48 1.9l6.23 6.22a24 24 0 0 0 0 31.7l-6.05 6a8.43 8.43 0 1 0 2.42 2l5.82-5.81a24 24 0 0 0 31.7 0l6.77 6.77a8.34 8.34 0 1 0 7-3.89zm0-55.7a5.25 5.25 0 1 1 -5.25 5.25 5.26 5.26 0 0 1 5.25-5.25zm-62.91 5.25a5.25 5.25 0 1 1 5.25 5.25 5.26 5.26 0 0 1 -5.25-5.25zm5.25 64.05a5.25 5.25 0 1 1 5.25-5.25 5.26 5.26 0 0 1 -5.25 5.25zm13.2-19.73a20.92 20.92 0 1 1 29.59 0 20.94 20.94 0 0 1 -29.59 0zm44.46 19.73a5.25 5.25 0 1 1 5.25-5.25 5.26 5.26 0 0 1 -5.25 5.25z" fill="#3a556a"/><path d="m86.49 87.85c-.17-3.26-.54-7.13-1.36-8.67-1.1-2.1-4.62-3-6.4-3.38l-.65-.11h-.19-.23-.43-.21l-1.2-.08-1.65.74-1.66-.74-1.2.08h-.22-.42-.24-.19l-.4.07h-.13c-1.71.35-5.38 1.24-6.51 3.42-.82 1.54-1.19 5.41-1.36 8.67z" fill="#2d93ba"/><path d="m71.8 72.25h4.73v3.97h-4.73z" fill="#f7be56"/><path d="m72.98 87.85h2.38l-.64-8.7 1.33-1.85-1.88-1.07-1.89 1.07 1.33 1.85z" fill="#e1e6e9"/><path d="m76.53 74.33-2.36 1.9 2 2.2 1.49-2.81z" fill="#27a2db"/><path d="m71.8 74.33 2.37 1.9-2.23 2.15-1.27-2.76z" fill="#27a2db"/><path d="m78.49 67.72s.34-.72.73-.65.51.05.38.88-.09.56-.2 1.26-.3 2-1.2 1.24.29-2.73.29-2.73z" fill="#fcd462"/><path d="m78.35 63c-.66-1.23-4-1.13-4-1.13s-3.38-.1-4 1.13-.35 4.31-.35 4.31a10.5 10.5 0 0 0 .27 3.2 4.28 4.28 0 0 0 2.09 3.09 3.69 3.69 0 0 0 3.89 0 4.34 4.34 0 0 0 2.09-3.09 10.87 10.87 0 0 0 .27-3.2s.39-3.13-.26-4.31z" fill="#fcd462"/><path d="m70.14 67.72s-.34-.72-.73-.65-.52.05-.38.88.09.56.19 1.26.31 2 1.21 1.24-.29-2.73-.29-2.73z" fill="#fcd462"/><path d="m79 62.46c-.49-1.86-1.63-3-4.66-3s-4.16 1.11-4.65 3 .51 6.41.51 6.41h.37v-2.06a4.54 4.54 0 0 1 -.4-1.71c0-1 0-1.88.68-1.86h.35c1 .12 3.11.55 3.11.55s2.11-.43 3.11-.55h.36c.72 0 .72.82.67 1.86a4.44 4.44 0 0 1 -.39 1.71v2.06h.37s1.02-4.54.57-6.41z" fill="#3a556a"/></svg>