<svg id="OutlineExpandedColored" enable-background="new 0 0 64 64" height="512" viewBox="0 0 64 64" width="512" xmlns="http://www.w3.org/2000/svg"><path d="m42 61h-20v-4c0-5.523 4.477-10 10-10 5.523 0 10 4.477 10 10z" fill="#4ac3ed"/><path d="m26.09 40c-.055.326-.09.659-.09 1 0 3.314 2.686 6 6 6s6-2.686 6-6c0-.341-.035-.674-.09-1z" fill="#4ac3ed"/><path d="m3 7v16c0 2.209 1.791 4 4 4h3l7 7v-7h6c2.209 0 4-1.791 4-4v-16c0-2.209-1.791-4-4-4h-16c-2.209 0-4 1.791-4 4z" fill="#eae8e5"/><path d="m61 7v16c0 2.209-1.791 4-4 4h-3l-7 7v-7h-6c-2.209 0-4-1.791-4-4v-16c0-2.209 1.791-4 4-4h16c2.209 0 4 1.791 4 4z" fill="#eae8e5"/><path d="m9 20 6-11 6 11z" fill="#e55648"/><circle cx="49" cy="15" fill="#f4b34a" r="6"/><path d="m32 35c-2.611 0-4.827 1.671-5.651 4h-4.349v2h16c0-3.314-2.686-6-6-6z" fill="#304b68"/><g fill="#153049"><path d="m35.99 46.75c1.82-1.27 3.01-3.37 3.01-5.75 0-3.86-3.14-7-7-7-3.17 0-5.85 2.11-6.71 5h-3.29v2h3c0 2.38 1.19 4.48 3.01 5.75-4.1 1.6-7.01 5.59-7.01 10.25v4c0 .55.45 1 1 1h20c.55 0 1-.45 1-1v-4c0-4.66-2.91-8.65-7.01-10.25zm-3.99-10.75c2.05 0 3.81 1.24 4.59 3h-9.18c.78-1.76 2.54-3 4.59-3zm-5 5h10c0 2.76-2.24 5-5 5s-5-2.24-5-5zm14 19h-18v-3c0-4.96 4.04-9 9-9s9 4.04 9 9z"/><path d="m17 35c-.26 0-.516-.102-.707-.293l-6.707-6.707h-2.586c-2.757 0-5-2.243-5-5v-16c0-2.757 2.243-5 5-5h16c2.757 0 5 2.243 5 5v16c0 2.757-2.243 5-5 5h-5v6c0 .404-.244.769-.617.924-.124.051-.254.076-.383.076zm-10-31c-1.654 0-3 1.346-3 3v16c0 1.654 1.346 3 3 3h3c.265 0 .52.105.707.293l5.293 5.293v-4.586c0-.552.448-1 1-1h6c1.654 0 3-1.346 3-3v-16c0-1.654-1.346-3-3-3z"/><path d="m47 35c-.129 0-.259-.025-.383-.076-.373-.155-.617-.52-.617-.924v-6h-5c-2.757 0-5-2.243-5-5v-16c0-2.757 2.243-5 5-5h16c2.757 0 5 2.243 5 5v16c0 2.757-2.243 5-5 5h-2.586l-6.707 6.707c-.191.191-.447.293-.707.293zm-6-31c-1.654 0-3 1.346-3 3v16c0 1.654 1.346 3 3 3h6c.552 0 1 .448 1 1v4.586l5.293-5.293c.187-.188.442-.293.707-.293h3c1.654 0 3-1.346 3-3v-16c0-1.654-1.346-3-3-3z"/><path d="m21 21h-12c-.353 0-.68-.186-.86-.49-.18-.303-.187-.679-.018-.989l6-11c.351-.643 1.405-.643 1.756 0l6 11c.169.31.162.686-.018.989-.18.304-.507.49-.86.49zm-10.315-2h8.631l-4.316-7.912z"/><path d="m49 22c-3.86 0-7-3.14-7-7s3.14-7 7-7 7 3.14 7 7-3.14 7-7 7zm0-12c-2.757 0-5 2.243-5 5s2.243 5 5 5 5-2.243 5-5-2.243-5-5-5z"/></g></svg>