<svg id="Layer_1" enable-background="new 0 0 512 512" height="512" viewBox="0 0 512 512" width="512" xmlns="http://www.w3.org/2000/svg"><g><g fill="#43809f"><path d="m432.981 194.798h-78.321c-2.885 0-5.514 1.654-6.762 4.255l-13.595 28.328h-68.764c-4.143 0-7.5 3.358-7.5 7.5s3.357 7.5 7.5 7.5h73.483c2.885 0 5.514-1.654 6.762-4.255l13.595-28.328h73.602c4.143 0 7.5-3.358 7.5-7.5s-3.358-7.5-7.5-7.5z"/><path d="m275.027 114.1h41.595c3.047 0 5.791-1.843 6.943-4.664l19.967-48.882h59.588c4.143 0 7.5-3.358 7.5-7.5s-3.357-7.5-7.5-7.5h-64.626c-3.047 0-5.791 1.843-6.943 4.664l-19.967 48.882h-36.557c-4.143 0-7.5 3.358-7.5 7.5s3.358 7.5 7.5 7.5z"/><path d="m394.5 377.986h-51.116l-16.359-23.739c-1.4-2.031-3.709-3.244-6.176-3.244h-45.821c-4.143 0-7.5 3.358-7.5 7.5s3.357 7.5 7.5 7.5h41.882l16.359 23.739c1.4 2.031 3.709 3.244 6.176 3.244h55.055c4.143 0 7.5-3.358 7.5-7.5s-3.357-7.5-7.5-7.5z"/></g><path d="m265.116 300.403h-241.782c-12.887 0-23.334-10.447-23.334-23.334v-84.375c0-12.887 10.447-23.334 23.334-23.334h241.782c12.887 0 23.334 10.447 23.334 23.334v84.375c.001 12.887-10.446 23.334-23.334 23.334z" fill="#88c3e0"/><path d="m265.787 169.36h-30.905c12.517 0 22.664 10.756 22.664 24.025v82.994c0 13.268-10.147 24.025-22.664 24.025h30.905c12.517 0 22.664-10.756 22.664-24.025v-82.994c0-13.269-10.147-24.025-22.664-24.025z" fill="#6eabc9"/><path d="m128.773 412.284h30.905v45.936h-30.905z" fill="#43809f"/><path d="m508 512h-504c-2.209 0-4-1.791-4-4v-22.905c0-2.209 1.791-4 4-4h504c2.209 0 4 1.791 4 4v22.905c0 2.209-1.791 4-4 4z" fill="#43809f"/><path d="m287.195 63.84h-285.628l17.729-53.281c2.102-6.294 8.159-10.559 14.989-10.559h220.459c6.83 0 12.888 4.265 14.989 10.559z" fill="#29cef6"/><path d="m269.444 10.559c-2.102-6.294-8.159-10.559-14.989-10.559h-30.905c6.83 0 12.888 4.265 14.989 10.559l17.461 53.281h30.905z" fill="#22b5ed"/><path d="m265.787 173.071h-243.123c-12.517 0-22.664-10.147-22.664-22.664v-78.294c0-12.517 10.147-22.664 22.664-22.664h243.123c12.517 0 22.664 10.147 22.664 22.664v78.294c0 12.517-10.147 22.664-22.664 22.664z" fill="#a9dbf5"/><path d="m265.787 49.449h-30.905c12.517 0 22.664 10.147 22.664 22.664v78.294c0 12.517-10.147 22.664-22.664 22.664h30.905c12.517 0 22.664-10.147 22.664-22.664v-78.294c0-12.517-10.147-22.664-22.664-22.664z" fill="#88c3e0"/><path d="m30.906 138.044v-53.569c0-2.276 1.845-4.121 4.121-4.121h218.398c2.276 0 4.121 1.845 4.121 4.121v53.569c0 2.276-1.845 4.121-4.121 4.121h-218.399c-2.276 0-4.12-1.845-4.12-4.121z" fill="#43809f"/><path d="m78.287 113.32c-8.534 0-15.453-6.918-15.453-15.453v-17.513h30.906v17.513c0 8.535-6.919 15.453-15.453 15.453z" fill="#f78e36"/><path d="m129.803 113.32c-8.534 0-15.453-6.918-15.453-15.453v-17.513h30.905v17.513c.001 8.535-6.918 15.453-15.452 15.453z" fill="#f78e36"/><path d="m30.906 261.666v-53.569c0-2.276 1.845-4.121 4.121-4.121h218.398c2.276 0 4.121 1.845 4.121 4.121v53.569c0 2.276-1.845 4.121-4.121 4.121h-218.399c-2.276 0-4.12-1.845-4.12-4.121z" fill="#43809f"/><path d="m78.287 236.942c-8.534 0-15.453-6.918-15.453-15.453v-17.513h30.906v17.513c0 8.534-6.919 15.453-15.453 15.453z" fill="#f78e36"/><path d="m129.803 236.942c-8.534 0-15.453-6.918-15.453-15.453v-17.513h30.905v17.513c.001 8.534-6.918 15.453-15.452 15.453z" fill="#f78e36"/><path d="m265.787 420.314h-243.123c-12.517 0-22.664-10.147-22.664-22.664v-78.294c0-12.517 10.147-22.664 22.664-22.664h243.123c12.517 0 22.664 10.147 22.664 22.664v78.294c0 12.517-10.147 22.664-22.664 22.664z" fill="#a9dbf5"/><path d="m265.787 296.692h-30.905c12.517 0 22.664 10.147 22.664 22.664v78.294c0 12.517-10.147 22.664-22.664 22.664h30.905c12.517 0 22.664-10.147 22.664-22.664v-78.294c0-12.517-10.147-22.664-22.664-22.664z" fill="#88c3e0"/><path d="m30.906 385.288v-53.569c0-2.276 1.845-4.121 4.121-4.121h218.398c2.276 0 4.121 1.845 4.121 4.121v53.569c0 2.276-1.845 4.121-4.121 4.121h-218.399c-2.276 0-4.12-1.845-4.12-4.121z" fill="#43809f"/><g fill="#f78e36"><path d="m78.287 360.564c-8.534 0-15.453-6.918-15.453-15.453v-17.513h30.906v17.513c0 8.534-6.919 15.453-15.453 15.453z"/><path d="m129.803 360.564c-8.534 0-15.453-6.918-15.453-15.453v-17.513h30.905v17.513c.001 8.534-6.918 15.453-15.452 15.453z"/><path d="m190.584 481.095v30.905h-92.717v-30.905h30.906v-30.906h30.905v30.906z"/><path d="m457.916 99.413h-72.113c-5.69 0-10.302-4.612-10.302-10.302v-72.113c0-5.69 4.612-10.302 10.302-10.302h72.113c5.69 0 10.302 4.612 10.302 10.302v72.113c-.001 5.689-4.613 10.302-10.302 10.302z"/></g><path d="m457.916 6.696h-30.906c5.69 0 10.302 4.612 10.302 10.302v72.113c0 5.69-4.612 10.302-10.302 10.302h30.905c5.69 0 10.302-4.612 10.302-10.302v-72.113c0-5.689-4.612-10.302-10.301-10.302z" fill="#f86f1b"/><path d="m501.698 247.244h-72.113c-5.69 0-10.302-4.612-10.302-10.302v-72.113c0-5.69 4.612-10.302 10.302-10.302h72.113c5.69 0 10.302 4.612 10.302 10.302v72.113c0 5.689-4.612 10.302-10.302 10.302z" fill="#ffc328"/><path d="m501.698 154.527h-30.905c5.69 0 10.302 4.612 10.302 10.302v72.113c0 5.69-4.612 10.302-10.302 10.302h30.905c5.69 0 10.302-4.612 10.302-10.302v-72.113c0-5.689-4.612-10.302-10.302-10.302z" fill="#ffb200"/><path d="m457.916 431.844h-72.113c-5.69 0-10.302-4.612-10.302-10.302v-72.112c0-5.69 4.612-10.302 10.302-10.302h72.113c5.69 0 10.302 4.612 10.302 10.302v72.113c-.001 5.689-4.613 10.301-10.302 10.301z" fill="#7be492"/><path d="m457.916 339.128h-30.906c5.69 0 10.302 4.612 10.302 10.302v72.113c0 5.69-4.612 10.302-10.302 10.302h30.905c5.69 0 10.302-4.612 10.302-10.302v-72.113c0-5.69-4.612-10.302-10.301-10.302z" fill="#45d987"/></g></svg>