<svg id="Capa_1" enable-background="new 0 0 497 497" height="512" viewBox="0 0 497 497" width="512" xmlns="http://www.w3.org/2000/svg"><g><path d="m0 167.215c0 167.402 24.54 220.985 67.74 220.985 20.883 0 35.089-9.271 52.26-23.596l25.891-17.807 32.249-162.517-13.327-134.981c-25.668 14.094-34.9 38.901-34.9 38.901-5.305 13.3-72.859-10.127-72.859-10.127-27.368 4.847-57.054 30.416-57.054 89.142z" fill="#de5791"/><path d="m164.813 49.299c10.184-5.592 22.953-9.5 38.763-9.5 55.659 0 73.511 48.4 73.511 48.4s33.024-11 63.052-11c29.53 0 66.861 24.16 66.861 90.015l-261.109 179.584 9.551-160.118c-10.646-45.808-6.1-106.673 9.371-137.381zm-140.913 116.916c0 9.104 5.44 15.985 15.006 15.985h81.202c-10-41.6 4.499-80.7 9.805-94 0 0-33.024-11-63.052-11-3.197 0-6.485.284-9.807.873s-33.154 19.542-33.154 88.142z" fill="#e175a5"/><path d="m291.616 237.56c7.501-48 8.392-85.92-2.146-121.68-5.106-17.327-12.231-27.68-12.231-27.68 5.305 13.3 9.913 47.6 3.663 88.88z" fill="#de5791"/><path d="m120 278.7 39.887-67.5s-19.784-7.5-39.887-7.5c-30.708 0-58.833 13.253-87.238 91.635 1.858 24.362 5.264 45.141 18.974 59.784 11.04 11.791 33.624 11.974 47.684-1.159 0-55.203.376-75.26 20.58-75.26z" fill="#e175a5"/><path d="m120.108 211.2h22.392c0 4.142-3.358 7.5-7.5 7.5s-7.5 3.358-7.5 7.5 3.358 7.5 7.5 7.5 7.5 3.358 7.5 7.5-3.358 7.5-7.5 7.5-7.5 3.358-7.5 7.5 3.358 7.5 7.5 7.5 7.5 3.358 7.5 7.5h-22.392s-10.108-15.32-10.108-30 10.108-30 10.108-30z" fill="#e175a5"/><path d="m189.862 148.421c-7.602 15.68-26.476 22.228-42.155 14.625s-22.228-26.476-14.625-42.155zm27.276 0c7.602 15.68 26.476 22.228 42.155 14.625s22.228-26.476 14.625-42.155z" fill="#f9c8dc"/><path d="m248.5 412.554-128.5 2.05v-173.404l128.5-39z" fill="#a2abb8"/><g fill="#c8d2dc"><path d="m497 414.604-357 40.557s0-135.907 0-156.404c0-12.96 6.7-20.057 19.887-20.057h67.5l269.613-68.904z"/><path d="m497 437.554-356.938-39.686-20.062 16.736v27.596c0 8.25 6.75 15 15 15h347c8.25 0 15-6.75 15-15 0-2.446 0-4.646 0-4.646z"/><path d="m135 167.2c-8.25 0-15 6.75-15 15v59h20l21.5-34-21.5-40z"/></g><path d="m482 167.2h-342v74h17.475l136.447 113.687c8.442 7.043 20.713 7.043 29.155 0l173.923-145.091s0-18.796 0-27.596c0-8.25-6.75-15-15-15z" fill="#e9edf1"/><path d="m383.234 319.697-66.156 55.189c-8.442 7.043-20.713 7.043-29.155 0l-60.194-50.153-87.666 73.134-.063 24.687c0 8.25 6.75 15 15 15h342c0-9.998 0-22.949 0-22.949z" fill="#e9edf1"/><path d="m135 248.7h24.887c4.142 0 7.5-3.357 7.5-7.5s-3.358-7.5-7.5-7.5h-24.887c-4.142 0-7.5-3.358-7.5-7.5s3.358-7.5 7.5-7.5h24.887c4.142 0 7.5-3.357 7.5-7.5s-3.358-7.5-7.5-7.5h-39.887c-4.142 0-7.5 3.357-7.5 7.5v60c0 4.143 3.358 7.5 7.5 7.5h39.887c4.142 0 7.5-3.357 7.5-7.5s-3.358-7.5-7.5-7.5h-24.887c-4.142 0-7.5-3.358-7.5-7.5s3.358-7.5 7.5-7.5z" fill="#e175a5"/></g></svg>